<svg width="285" height="64" viewBox="0 0 285 64" fill="none" xmlns="http://www.w3.org/2000/svg">
<path d="M76.5899 31.0773L78.4995 22.2237H86.1379C86.7629 22.2237 87.3415 22.2931 87.8739 22.432C88.4294 22.5709 88.9039 22.8023 89.2974 23.1264C89.7141 23.4273 90.0381 23.8324 90.2696 24.3416C90.5011 24.8277 90.6168 25.4179 90.6168 26.1123C90.6168 26.9687 90.4432 27.7094 90.096 28.3344C89.7488 28.9362 89.2859 29.4339 88.7072 29.8274C88.1285 30.2209 87.4689 30.5218 86.7282 30.7301C85.9875 30.9384 85.2121 31.0541 84.4019 31.0773H76.5899ZM76.5552 20.2099L71.1736 45H81.8674C83.1636 45 84.4135 44.8727 85.6171 44.6181C86.8207 44.3403 87.8739 43.9005 88.7766 43.2987C89.7025 42.6969 90.4432 41.8983 90.9987 40.903C91.5542 39.9077 91.832 38.681 91.832 37.2227C91.832 35.9034 91.4501 34.7692 90.6862 33.8202C89.9455 32.848 88.9155 32.2809 87.5962 32.1189V32.0494C89.2164 31.7717 90.5126 31.0889 91.4848 30.001C92.4801 28.8899 92.9778 27.5127 92.9778 25.8693C92.9778 24.8277 92.7926 23.9481 92.4222 23.2306C92.075 22.513 91.589 21.9343 90.964 21.4946C90.339 21.0316 89.6099 20.7076 88.7766 20.5224C87.9665 20.3141 87.0985 20.2099 86.1726 20.2099H76.5552ZM73.9859 42.9862L76.1386 33.091H83.6034C84.3672 33.091 85.0963 33.1489 85.7907 33.2646C86.5083 33.3804 87.1332 33.6118 87.6656 33.959C88.2211 34.2831 88.6609 34.7345 88.985 35.3131C89.309 35.8686 89.471 36.5978 89.471 37.5005C89.471 38.4726 89.2627 39.3059 88.8461 40.0003C88.4294 40.6947 87.8855 41.2618 87.2142 41.7016C86.543 42.1414 85.7791 42.4654 84.9227 42.6738C84.0894 42.8821 83.2446 42.9862 82.3882 42.9862H73.9859ZM108.914 34.7923H97.2133C97.3985 33.959 97.6878 33.1605 98.0813 32.3966C98.4748 31.6328 98.9609 30.9615 99.5396 30.3829C100.141 29.7811 100.813 29.3066 101.553 28.9594C102.317 28.589 103.15 28.4038 104.053 28.4038C105.581 28.4038 106.773 28.8552 107.629 29.7579C108.509 30.6606 108.949 31.8758 108.949 33.4035C108.949 33.635 108.937 33.8665 108.914 34.0979C108.914 34.3062 108.914 34.5377 108.914 34.7923ZM96.9356 36.6325H110.962C111.032 36.1001 111.078 35.5793 111.101 35.0701C111.124 34.5609 111.136 34.0516 111.136 33.5424C111.136 32.5008 110.986 31.5518 110.685 30.6954C110.384 29.8389 109.932 29.1098 109.331 28.508C108.752 27.883 108.046 27.4085 107.213 27.0845C106.379 26.7373 105.419 26.5637 104.331 26.5637C102.803 26.5637 101.438 26.8877 100.234 27.5358C99.0303 28.1839 98.0119 29.0404 97.1786 30.1051C96.3453 31.1699 95.7088 32.3851 95.269 33.7507C94.8524 35.0932 94.644 36.482 94.644 37.9171C94.644 40.2781 95.2574 42.1298 96.4842 43.4723C97.7341 44.8148 99.5511 45.4861 101.935 45.4861C104.088 45.4861 105.835 44.9537 107.178 43.889C108.52 42.8242 109.493 41.2734 110.094 39.2365H107.907C107.49 40.5558 106.773 41.6322 105.754 42.4654C104.736 43.2756 103.498 43.6806 102.039 43.6806C101.16 43.6806 100.384 43.5418 99.7132 43.264C99.0651 42.9631 98.5211 42.5696 98.0813 42.0835C97.6647 41.5743 97.3522 40.9725 97.1439 40.2781C96.9356 39.5837 96.8314 38.8314 96.8314 38.0213C96.8314 37.5121 96.8661 37.0491 96.9356 36.6325ZM115.634 27.0845L111.815 45H113.968L115.947 35.7992C116.178 34.665 116.525 33.6466 116.988 32.7438C117.451 31.818 117.995 31.0426 118.62 30.4176C119.245 29.7695 119.928 29.2718 120.669 28.9246C121.409 28.5774 122.173 28.4038 122.96 28.4038C123.446 28.4038 123.909 28.4617 124.349 28.5774C124.812 28.6932 125.217 28.8783 125.564 29.133C125.911 29.3876 126.189 29.7232 126.397 30.1398C126.606 30.5333 126.71 31.031 126.71 31.6328C126.71 31.9337 126.687 32.2462 126.64 32.5702C126.594 32.8711 126.536 33.1605 126.467 33.4382L123.967 45H126.154L128.619 33.5077C128.805 32.5818 128.897 31.8758 128.897 31.3898C128.897 30.5333 128.758 29.8042 128.481 29.2024C128.226 28.5774 127.856 28.0798 127.37 27.7094C126.883 27.3159 126.305 27.0266 125.634 26.8414C124.985 26.6563 124.268 26.5637 123.481 26.5637C122.138 26.5637 120.9 26.934 119.766 27.6747C118.655 28.3923 117.764 29.2834 117.092 30.3482H117.023L117.648 27.0845H115.634ZM146.018 45L151.33 20.2099H149.143L146.99 30.4523H146.921C146.527 29.0404 145.81 28.0451 144.768 27.4664C143.726 26.8646 142.5 26.5637 141.088 26.5637C139.583 26.5637 138.229 26.9109 137.025 27.6053C135.822 28.2997 134.792 29.2024 133.935 30.3134C133.079 31.4245 132.419 32.6744 131.956 34.0632C131.517 35.452 131.297 36.8292 131.297 38.1949C131.297 40.3938 131.852 42.1645 132.963 43.507C134.097 44.8264 135.81 45.4861 138.102 45.4861C139.676 45.4861 140.96 45.162 141.956 44.5139C142.974 43.8658 143.865 42.9515 144.629 41.771H144.699L143.9 45H146.018ZM138.31 43.6806C136.667 43.6806 135.452 43.1714 134.665 42.153C133.878 41.1345 133.484 39.8614 133.484 38.3338C133.484 37.2459 133.646 36.1233 133.97 34.9659C134.294 33.7854 134.769 32.7091 135.394 31.737C136.042 30.7648 136.84 29.9662 137.789 29.3413C138.761 28.7163 139.873 28.4038 141.122 28.4038C142.72 28.4038 143.946 28.8668 144.803 29.7926C145.682 30.7185 146.122 31.98 146.122 33.5771C146.122 34.6882 145.949 35.8455 145.601 37.0491C145.254 38.2296 144.745 39.3175 144.074 40.3128C143.426 41.285 142.615 42.0951 141.643 42.7432C140.671 43.3682 139.56 43.6806 138.31 43.6806ZM165.503 34.7923H153.803C153.988 33.959 154.277 33.1605 154.671 32.3966C155.064 31.6328 155.55 30.9615 156.129 30.3829C156.731 29.7811 157.402 29.3066 158.143 28.9594C158.907 28.589 159.74 28.4038 160.643 28.4038C162.17 28.4038 163.362 28.8552 164.219 29.7579C165.098 30.6606 165.538 31.8758 165.538 33.4035C165.538 33.635 165.527 33.8665 165.503 34.0979C165.503 34.3062 165.503 34.5377 165.503 34.7923ZM153.525 36.6325H167.552C167.621 36.1001 167.668 35.5793 167.691 35.0701C167.714 34.5609 167.726 34.0516 167.726 33.5424C167.726 32.5008 167.575 31.5518 167.274 30.6954C166.973 29.8389 166.522 29.1098 165.92 28.508C165.341 27.883 164.635 27.4085 163.802 27.0845C162.969 26.7373 162.008 26.5637 160.92 26.5637C159.393 26.5637 158.027 26.8877 156.823 27.5358C155.62 28.1839 154.601 29.0404 153.768 30.1051C152.935 31.1699 152.298 32.3851 151.859 33.7507C151.442 35.0932 151.234 36.482 151.234 37.9171C151.234 40.2781 151.847 42.1298 153.074 43.4723C154.324 44.8148 156.141 45.4861 158.525 45.4861C160.677 45.4861 162.425 44.9537 163.767 43.889C165.11 42.8242 166.082 41.2734 166.684 39.2365H164.497C164.08 40.5558 163.362 41.6322 162.344 42.4654C161.326 43.2756 160.087 43.6806 158.629 43.6806C157.749 43.6806 156.974 43.5418 156.303 43.264C155.655 42.9631 155.111 42.5696 154.671 42.0835C154.254 41.5743 153.942 40.9725 153.733 40.2781C153.525 39.5837 153.421 38.8314 153.421 38.0213C153.421 37.5121 153.456 37.0491 153.525 36.6325ZM172.224 27.0845L168.405 45H170.557L172.571 35.6256C172.756 34.7923 173.022 33.9822 173.369 33.1952C173.74 32.4082 174.203 31.7138 174.758 31.112C175.314 30.487 175.962 29.9894 176.703 29.619C177.466 29.2487 178.334 29.0519 179.307 29.0288C179.515 29.0288 179.723 29.0404 179.932 29.0635C180.14 29.0635 180.348 29.0635 180.557 29.0635L181.043 26.8762C180.95 26.853 180.857 26.8414 180.765 26.8414C180.672 26.8414 180.568 26.8414 180.452 26.8414H179.862C178.265 26.8414 176.957 27.2465 175.939 28.0566C174.92 28.8668 174.064 29.9199 173.369 31.2162H173.3L174.203 27.0845H172.224ZM203.244 45L214.875 20.2099H209.424L201.855 38.299H201.785L201.16 20.2099H195.952L188.106 38.3685H188.036L187.689 20.2099H182.238L183.939 45H189.425L197.133 27.2928H197.202L197.827 45H203.244ZM213.286 32.5008H217.903C218.065 31.5981 218.494 30.9384 219.188 30.5218C219.882 30.082 220.669 29.8621 221.549 29.8621C221.873 29.8621 222.209 29.8968 222.556 29.9662C222.926 30.0125 223.262 30.1167 223.563 30.2787C223.887 30.4407 224.153 30.6606 224.361 30.9384C224.57 31.2162 224.674 31.5865 224.674 32.0494C224.674 32.6281 224.535 33.0679 224.257 33.3688C223.979 33.6466 223.551 33.8665 222.972 34.0285C222.417 34.1674 221.711 34.2715 220.854 34.341C219.998 34.4104 218.991 34.5146 217.834 34.6534C215.658 34.9081 213.968 35.5562 212.765 36.5978C211.584 37.6394 210.994 39.0282 210.994 40.7642C210.994 41.3891 211.11 41.9909 211.341 42.5696C211.573 43.1251 211.931 43.6228 212.418 44.0626C212.904 44.4792 213.505 44.8148 214.223 45.0694C214.964 45.3241 215.82 45.4514 216.792 45.4514C217.834 45.4514 218.841 45.2778 219.813 44.9306C220.785 44.5602 221.607 43.9931 222.278 43.2293V45H227.208C227.093 44.6065 227.035 44.2593 227.035 43.9584C227.035 43.6112 227.046 43.2061 227.069 42.7432C227.116 42.2571 227.185 41.8521 227.278 41.528L228.875 34.3062C229.129 33.1489 229.257 32.142 229.257 31.2856C229.28 30.2671 229.048 29.457 228.562 28.8552C228.099 28.2302 227.498 27.7557 226.757 27.4317C226.016 27.0845 225.206 26.853 224.326 26.7373C223.447 26.6215 222.602 26.5637 221.792 26.5637C220.773 26.5637 219.79 26.6678 218.841 26.8762C217.892 27.0613 217.035 27.3854 216.271 27.8483C215.508 28.3113 214.86 28.9246 214.327 29.6885C213.795 30.4292 213.448 31.3666 213.286 32.5008ZM223.702 36.3894L223.215 38.1254C223.077 38.6115 222.903 39.0976 222.695 39.5837C222.486 40.0698 222.197 40.5095 221.827 40.903C221.479 41.2734 221.04 41.5859 220.507 41.8405C219.998 42.0719 219.362 42.1877 218.598 42.1877C217.88 42.1877 217.244 42.0257 216.688 41.7016C216.156 41.3544 215.89 40.8452 215.89 40.1739C215.89 39.6184 215.994 39.167 216.202 38.8198C216.41 38.4495 216.677 38.1602 217.001 37.9518C217.348 37.7435 217.741 37.5931 218.181 37.5005C218.621 37.3847 219.072 37.3037 219.535 37.2574C220.253 37.2111 220.97 37.1533 221.688 37.0838C222.405 36.9913 223.077 36.7598 223.702 36.3894ZM240.791 27.0498L241.902 21.5987H236.972L235.861 27.0498H232.702L231.938 30.3482H235.167L233.153 39.9656C233.084 40.2897 233.026 40.6021 232.979 40.903C232.933 41.1808 232.91 41.4354 232.91 41.6669C232.887 42.4076 233.003 43.0094 233.257 43.4723C233.535 43.9353 233.894 44.3056 234.333 44.5834C234.796 44.838 235.306 45.0116 235.861 45.1042C236.44 45.2199 237.018 45.2778 237.597 45.2778C238.129 45.2778 238.65 45.2546 239.16 45.2083C239.669 45.1852 240.178 45.1505 240.687 45.1042L241.52 41.3197C240.942 41.3891 240.352 41.4238 239.75 41.4238C239.565 41.4238 239.368 41.4238 239.16 41.4238C238.974 41.4007 238.801 41.3428 238.639 41.2502C238.477 41.1577 238.338 41.0303 238.222 40.8683C238.129 40.6831 238.083 40.4285 238.083 40.1045C238.083 40.035 238.095 39.9309 238.118 39.792C238.141 39.63 238.176 39.4564 238.222 39.2712L240.062 30.3482H243.569L244.333 27.0498H240.791ZM257.6 33.2646H262.53C262.507 32.0842 262.276 31.0657 261.836 30.2093C261.419 29.3529 260.84 28.6585 260.1 28.1261C259.382 27.5937 258.537 27.2002 257.565 26.9456C256.593 26.691 255.563 26.5637 254.475 26.5637C252.855 26.5637 251.42 26.8646 250.17 27.4664C248.92 28.0451 247.855 28.8552 246.976 29.8968C246.119 30.9153 245.459 32.1073 244.997 33.473C244.557 34.8155 244.337 36.2506 244.337 37.7782C244.337 40.417 245.031 42.3613 246.42 43.6112C247.832 44.838 249.799 45.4514 252.322 45.4514C254.683 45.4514 256.628 44.8495 258.155 43.6459C259.706 42.4191 260.852 40.6831 261.593 38.4379H256.662C256.524 38.8777 256.338 39.3059 256.107 39.7226C255.899 40.1161 255.621 40.4633 255.274 40.7642C254.95 41.0651 254.568 41.3081 254.128 41.4933C253.711 41.6785 253.225 41.771 252.67 41.771C252.045 41.771 251.512 41.6669 251.073 41.4586C250.656 41.2502 250.309 40.9725 250.031 40.6253C249.753 40.2781 249.556 39.873 249.441 39.4101C249.325 38.924 249.267 38.4148 249.267 37.8824C249.267 37.1186 249.348 36.2969 249.51 35.4173C249.695 34.5146 249.985 33.6813 250.378 32.9174C250.772 32.1536 251.292 31.5286 251.941 31.0426C252.589 30.5333 253.376 30.2787 254.302 30.2787C255.413 30.2787 256.234 30.5102 256.767 30.9731C257.322 31.4361 257.6 32.1999 257.6 33.2646ZM268.039 20.2099L262.9 45H267.796L269.81 35.452C269.949 34.827 270.145 34.2137 270.4 33.6118C270.678 33.01 271.013 32.4777 271.407 32.0147C271.823 31.5518 272.31 31.1814 272.865 30.9037C273.444 30.6028 274.103 30.4523 274.844 30.4523C275.423 30.4523 275.955 30.6259 276.441 30.9731C276.95 31.3203 277.205 31.7601 277.205 32.2925C277.205 32.5471 277.159 32.9059 277.066 33.3688C276.997 33.8317 276.939 34.2021 276.893 34.4798L274.705 45H279.635L281.858 34.4798C281.881 34.3178 281.915 34.1095 281.962 33.8549C282.031 33.5771 282.089 33.2878 282.135 32.9869C282.205 32.686 282.263 32.3966 282.309 32.1189C282.355 31.818 282.378 31.5749 282.378 31.3898C282.378 28.1724 280.631 26.5637 277.136 26.5637C276.325 26.5637 275.596 26.6563 274.948 26.8414C274.3 27.0035 273.733 27.2118 273.247 27.4664C272.761 27.721 272.344 27.9988 271.997 28.2997C271.65 28.6006 271.384 28.8783 271.198 29.133H271.129L272.969 20.2099H268.039Z" fill="white"/>
<circle cx="31" cy="32" r="16" fill="url(#paint0_linear_10_129)"/>
<circle cx="31" cy="32" r="25.5" stroke="#CF383B"/>
<path d="M61.5 32C61.5 49.4121 47.8298 63.5 31 63.5C14.1702 63.5 0.5 49.4121 0.5 32C0.5 14.5879 14.1702 0.5 31 0.5C47.8298 0.5 61.5 14.5879 61.5 32Z" stroke="#D6393B" stroke-opacity="0.37"/>
<path fill-rule="evenodd" clip-rule="evenodd" d="M11 36C12.8531 45.129 20.9241 52 30.5999 52C40.2758 52 48.3468 45.129 50.1999 36H11Z" fill="url(#paint1_linear_10_129)" fill-opacity="0.55"/>
<path fill-rule="evenodd" clip-rule="evenodd" d="M11.1916 34.7793C12.3144 34.5988 13.1619 34.1684 14.1502 33.6665C14.1676 33.6577 14.185 33.6489 14.2025 33.64L14.232 33.625C15.7616 32.85 17.4391 32 20.25 32C22.9809 32 24.6421 32.8214 26.1371 33.5607C26.1907 33.5873 26.2442 33.6137 26.2975 33.64C27.63 34.3575 28.655 34.87 30.5 34.87C32.2101 34.87 33.2794 34.3423 34.5391 33.7206C34.5932 33.6939 34.6477 33.667 34.7025 33.64C36.24 32.861 37.9415 32 40.75 32C43.5585 32 45.26 32.861 46.7975 33.64C48.0815 34.2919 49.08 34.7915 50.8017 34.827C50.6087 36.1915 50.2779 37.5117 49.824 38.7731C47.692 38.5737 46.2627 37.8503 44.9525 37.1865C43.62 36.469 42.595 35.9565 40.75 35.9565C39.0399 35.9565 37.9706 36.4842 36.7109 37.1059C36.6568 37.1326 36.6023 37.1595 36.5475 37.1865C36.4942 37.2128 36.4407 37.2392 36.3871 37.2658C34.8921 38.0051 33.2309 38.8265 30.5 38.8265C27.6891 38.8265 26.0115 37.9765 24.482 37.2015L24.4525 37.1865C23.12 36.469 22.054 35.9565 20.25 35.9565C18.4696 35.9565 17.4081 36.4956 16.0998 37.16C16.0824 37.1688 16.065 37.1776 16.0475 37.1865C16.0237 37.1982 15.9998 37.21 15.9759 37.2218C14.894 37.7558 13.7052 38.3425 12.1274 38.6365C11.6932 37.4017 11.3768 36.1115 11.1916 34.7793Z" fill="white"/>
<defs>
<linearGradient id="paint0_linear_10_129" x1="31" y1="16" x2="31" y2="48" gradientUnits="userSpaceOnUse">
<stop stop-color="#E83B3C"/>
<stop offset="1" stop-color="#E63B3C" stop-opacity="0"/>
</linearGradient>
<linearGradient id="paint1_linear_10_129" x1="20" y1="38" x2="51.5" y2="44" gradientUnits="userSpaceOnUse">
<stop stop-color="#FF741E" stop-opacity="0.8"/>
<stop offset="1" stop-color="#FFB628" stop-opacity="0.94"/>
</linearGradient>
</defs>
</svg>
